<svg width="25" height="25" viewBox="0 0 25 25" fill="none" xmlns="http://www.w3.org/2000/svg">
<path fill-rule="evenodd" clip-rule="evenodd" d="M4.42676 19.7915C4.42676 19.5843 4.50907 19.3856 4.65558 19.2391C4.80209 19.0926 5.00081 19.0103 5.20801 19.0103H19.7913C19.9985 19.0103 20.1973 19.0926 20.3438 19.2391C20.4903 19.3856 20.5726 19.5843 20.5726 19.7915C20.5726 19.9987 20.4903 20.1974 20.3438 20.3439C20.1973 20.4904 19.9985 20.5728 19.7913 20.5728H5.20801C5.00081 20.5728 4.80209 20.4904 4.65558 20.3439C4.50907 20.1974 4.42676 19.9987 4.42676 19.7915ZM7.55176 22.9165C7.55176 22.7093 7.63407 22.5106 7.78058 22.3641C7.92709 22.2176 8.12581 22.1353 8.33301 22.1353H16.6663C16.8735 22.1353 17.0723 22.2176 17.2188 22.3641C17.3653 22.5106 17.4476 22.7093 17.4476 22.9165C17.4476 23.1237 17.3653 23.3224 17.2188 23.4689C17.0723 23.6154 16.8735 23.6978 16.6663 23.6978H8.33301C8.12581 23.6978 7.92709 23.6154 7.78058 23.4689C7.63407 23.3224 7.55176 23.1237 7.55176 22.9165Z" fill="black"/>
<path d="M6.33613 15.8857C5.74856 14.815 5.45001 13.6097 5.46988 12.3885C5.48974 11.1674 5.82735 9.97247 6.44944 8.92147C7.07153 7.87047 7.95666 6.99963 9.01764 6.39471C10.0786 5.7898 11.2789 5.47168 12.5002 5.47168C13.7215 5.47168 14.9218 5.7898 15.9827 6.39471C17.0437 6.99963 17.9289 7.87047 18.5509 8.92147C19.173 9.97247 19.5106 11.1674 19.5305 12.3885C19.5504 13.6097 19.2518 14.815 18.6643 15.8857H22.9163C23.1235 15.8857 23.3223 15.968 23.4688 16.1145C23.6153 16.261 23.6976 16.4597 23.6976 16.6669C23.6976 16.8741 23.6153 17.0728 23.4688 17.2193C23.3223 17.3658 23.1235 17.4482 22.9163 17.4482H2.08301C1.87581 17.4482 1.67709 17.3658 1.53058 17.2193C1.38407 17.0728 1.30176 16.8741 1.30176 16.6669C1.30176 16.4597 1.38407 16.261 1.53058 16.1145C1.67709 15.968 1.87581 15.8857 2.08301 15.8857H6.33613Z" fill="black"/>
<path fill-rule="evenodd" clip-rule="evenodd" d="M12.4997 1.30225C12.7069 1.30225 12.9056 1.38456 13.0521 1.53107C13.1986 1.67758 13.2809 1.8763 13.2809 2.0835V3.12516C13.2809 3.33236 13.1986 3.53108 13.0521 3.67759C12.9056 3.8241 12.7069 3.90641 12.4997 3.90641C12.2925 3.90641 12.0938 3.8241 11.9472 3.67759C11.8007 3.53108 11.7184 3.33236 11.7184 3.12516V2.0835C11.7184 1.8763 11.8007 1.67758 11.9472 1.53107C12.0938 1.38456 12.2925 1.30225 12.4997 1.30225ZM4.58197 4.58245C4.72845 4.43615 4.92702 4.35397 5.13405 4.35397C5.34108 4.35397 5.53965 4.43615 5.68613 4.58245L6.09551 4.99079C6.23789 5.13807 6.31673 5.33537 6.31505 5.54022C6.31336 5.74506 6.23129 5.94105 6.08651 6.08597C5.94173 6.23089 5.74582 6.31314 5.54098 6.31502C5.33614 6.31689 5.13875 6.23824 4.99134 6.096L4.58197 5.68662C4.43566 5.54014 4.35349 5.34157 4.35349 5.13454C4.35349 4.92751 4.43566 4.72894 4.58197 4.58245ZM20.4174 4.58245C20.5637 4.72894 20.6459 4.92751 20.6459 5.13454C20.6459 5.34157 20.5637 5.54014 20.4174 5.68662L20.008 6.096C19.8599 6.234 19.664 6.30912 19.4616 6.30555C19.2592 6.30198 19.0661 6.21999 18.923 6.07685C18.7798 5.93371 18.6979 5.7406 18.6943 5.53821C18.6907 5.33581 18.7658 5.13993 18.9038 4.99183L19.3132 4.58245C19.4597 4.43615 19.6583 4.35397 19.8653 4.35397C20.0723 4.35397 20.2709 4.43615 20.4174 4.58245ZM1.30176 12.5002C1.30176 12.293 1.38407 12.0942 1.53058 11.9477C1.67709 11.8012 1.87581 11.7189 2.08301 11.7189H3.12467C3.33187 11.7189 3.53059 11.8012 3.6771 11.9477C3.82361 12.0942 3.90592 12.293 3.90592 12.5002C3.90592 12.7074 3.82361 12.9061 3.6771 13.0526C3.53059 13.1991 3.33187 13.2814 3.12467 13.2814H2.08301C1.87581 13.2814 1.67709 13.1991 1.53058 13.0526C1.38407 12.9061 1.30176 12.7074 1.30176 12.5002ZM21.0934 12.5002C21.0934 12.293 21.1757 12.0942 21.3222 11.9477C21.4688 11.8012 21.6675 11.7189 21.8747 11.7189H22.9163C23.1235 11.7189 23.3223 11.8012 23.4688 11.9477C23.6153 12.0942 23.6976 12.293 23.6976 12.5002C23.6976 12.7074 23.6153 12.9061 23.4688 13.0526C23.3223 13.1991 23.1235 13.2814 22.9163 13.2814H21.8747C21.6675 13.2814 21.4688 13.1991 21.3222 13.0526C21.1757 12.9061 21.0934 12.7074 21.0934 12.5002Z" fill="black"/>
</svg>
